# AST/ASF file generated using VICON BodyLanguage
# -----------------------------------------------
:version 1.10
:name VICON
:units
  mass 1.0
  length 0.45
  angle deg
:documentation
   .ast/.asf automatically generated from VICON data using
   VICON BodyBuilder and BodyLanguage model FoxedUp or BRILLIANT.MOD
:root
   order TX TY TZ RX RY RZ
   axis XYZ
   position 0 0 0  
   orientation 0 0 0 
:bonedata
  begin
     id 1 
     name lhipjoint
     direction 0.623415 -0.642378 0.445763 
     length 2.49859 
     axis 0 0 0  XYZ
  end
  begin
     id 2 
     name lfemur
     direction 0.34202 -0.939693 0  
     length 6.69689  
     axis 0 0 20  XYZ
    dof rx ry rz
    limits (-160.0 20.0)
           (-70.0 70.0)
           (-60.0 70.0)
  end
  begin
     id 3 
     name ltibia
     direction 0.34202 -0.939693 0   
     length 7.37574   
     axis 0 0 20   XYZ
    dof rx
    limits (-10.0 170.0)
  end
  begin
     id 4 
     name lfoot
     direction 0.084323 -0.231675 0.969132   
     length 2.09111   
     axis -90 7.62852e-016 20   XYZ
    dof rx rz
    limits (-45.0 90.0)
           (-70.0 20.0)
  end
  begin
     id 5 
     name ltoes
     direction 1.5357e-011 -4.21957e-011 1   
     length 1.04989   
     axis -90 7.62852e-016 20   XYZ
    dof rx
    limits (-90.0 20.0)
  end
  begin
     id 6 
     name rhipjoint
     direction -0.605402 -0.653903 0.45376   
     length 2.45455  
     axis 0 0 0  XYZ 
  end
  begin
     id 7 
     name rfemur
     direction -0.34202 -0.939693 0   
     length 6.64523   
     axis 0 0 -20   XYZ
    dof rx ry rz
    limits (-160.0 20.0)
           (-70.0 70.0)
           (-70.0 60.0)
  end
  begin
     id 8 
     name rtibia
     direction -0.34202 -0.939693 0   
     length 7.3339   
     axis 0 0 -20   XYZ
    dof rx
    limits (-10.0 170.0)
 end
 begin
     id 9 
     name rfoot
     direction -0.120854 -0.332043 0.93549   
     length 2.23135  
     axis -90 -7.62852e-016 -20   XYZ
    dof rx rz
    limits (-45.0 90.0)
           (-20.0 70.0)
  end
  begin
     id 10 
     name rtoes
     direction -1.53563e-011 -4.21914e-011 1   
     length 1.10614   
     axis -90 -7.62852e-016 -20   XYZ
    dof rx
    limits (-90.0 20.0)
  end
  begin
     id 11 
     name lowerback
     direction 0.0319682 0.998615 -0.0417941   
     length 2.02718   
     axis 0 0 0   XYZ
    dof rx ry rz
    limits (-20.0 45.0)
           (-30.0 30.0)
           (-30.0 30.0)
  end
  begin
     id 12 
     name upperback
     direction 7.63181e-005 0.995808 0.0914691   
     length 1.97539   
     axis 0 0 0   XYZ
    dof rx ry rz
    limits (-20.0 45.0)
           (-30.0 30.0)
           (-30.0 30.0)
  end
  begin
     id 13 
     name thorax
     direction -0.016423 0.993627 0.111514   
     length 2.00349   
     axis 0 0 0   XYZ
    dof rx ry rz
    limits (-20.0 45.0)
           (-30.0 30.0)
           (-30.0 30.0)
  end
  begin
     id 14 
     name lowerneck
     direction -0.174763 0.981668 -0.0760716   
     length 1.71436   
     axis 0 0 0   XYZ
    dof rx ry rz
    limits (-20.0 45.0)
           (-30.0 30.0)
           (-30.0 30.0)
  end
  begin
     id 15 
     name upperneck
     direction 0.345458 0.934587 -0.0848868   
     length 1.72805   
     axis 0 0 0   XYZ
    dof rx ry rz
    limits (-20.0 45.0)
           (-30.0 30.0)
           (-30.0 30.0)
  end
  begin
     id 16
     name head
     direction 0.13001 0.989848 -0.0574291  
     length 1.767  
     axis 0 0 0   XYZ
    dof rx ry rz
    limits (-20.0 45.0)
           (-30.0 30.0)
           (-30.0 30.0)
  end
  begin
     id 17 
     name lclavicle
     direction 0.952951 0.290122 0.0878234  
     length 3.54654  
     axis 0 0 0   XYZ
    dof ry rz
    limits (-20.0 10.0)
           (0.0 20.0)
  end
  begin
     id 18 
     name lhumerus
     direction 1 -4.48957e-011 -4.56525e-028   
     length 5.19807   
     axis 180 -30 -90   XYZ
    dof rx ry rz
    limits (-60.0 90.0)
           (-90.0 90.0)
           (-90.0 90.0)
  end
  begin
     id 19
     name lradius
     direction 1 -4.48979e-011 -2.0317e-027   
     length 3.0937   
     axis 180 -30 -90   XYZ
    dof rx
    limits (-10.0 170.0)
  end
  begin
     id 20
     name lwrist
     direction 1 -4.48953e-011 -3.05809e-027   
     length 1.54685   
     axis 8.48514e-016 90 90   XYZ
    dof ry
    limits (-180.0 0.0)
 end
  begin
     id 21 
     name lhand
     direction 1 -4.48952e-011 -6.11639e-027   
     length 0.672632   
     axis 3.9013e-015 90 90   XYZ
    dof rx rz
    limits (-90.0 90.0)
           (-45.0 45.0)
  end
  begin
     id 22 
     name lfingers
     direction 1 -4.48925e-011 -1.22426e-026   
     length 0.542293   
     axis 7.80276e-015 90 90   XYZ
    dof rx
    limits (0.0 90.0)
  end
  begin
     id 23
     name lthumb
     direction 0.707107 -6.3486e-011 0.707107   
     length 0.778628   
     axis -90 45 5.37419e-014   XYZ
    dof rx rz
    limits (-45.0 45.0)
           (-45.0 45.0)
  end
  begin
     id 24 
     name rclavicle
     direction -0.960732 0.273675 -0.0457849   
     length 3.52079  
     axis 0 0 0   XYZ 
    dof ry rz
    limits (-10.0 20.0)
           (-20.0 0.0)
  end
  begin
     id 25 
     name rhumerus
     direction -1 -4.48976e-011 -1.63613e-027  
     length 5.45222   
     axis 180 30 90   XYZ
    dof rx ry rz
    limits (-90.0 60.0)
           (-90.0 90.0)
           (-90.0 90.0)
  end
  begin
     id 26 
     name rradius
     direction -1 -4.48957e-011 -7.00033e-028   
     length 3.01284   
     axis 180 30 90   XYZ
    dof rx
    limits (-10.0 170.0)
  end
  begin
     id 27 
     name rwrist
     direction -1 -4.48983e-011 -3.05543e-027   
     length 1.50642   
     axis 8.48514e-016 -90 -90   XYZ
    dof ry
    limits (-180.0 0.0)
  end
  begin
     id 28
     name rhand
     direction -1 -4.48984e-011 -6.11072e-027   
     length 0.622296   
     axis 3.9013e-015 -90 -90   XYZ
    dof rx rz
    limits (-90.0 90.0)
           (-45.0 45.0)
  end
  begin
     id 29
     name rfingers
     direction -1 -4.48865e-011 -1.22637e-026   
     length 0.501711   
     axis 7.80276e-015 -90 -90   XYZ
    dof rx
    limits (0.0 90.0)
  end
  begin
     id 30
     name rthumb
     direction -0.707107 -6.34932e-011 0.707107   
     length 0.72036   
     axis -90 -45 -5.37419e-014   XYZ
    dof rx rz
    limits (-45.0 45.0)
           (-45.0 45.0)
  end
:hierarchy
  begin
    root lhipjoint rhipjoint lowerback
    lhipjoint lfemur
    lfemur ltibia
    ltibia lfoot
    lfoot ltoes
    rhipjoint rfemur
    rfemur rtibia
    rtibia rfoot
    rfoot rtoes
    lowerback upperback
    upperback thorax
    thorax lowerneck lclavicle rclavicle
    lowerneck upperneck
    upperneck head
    lclavicle lhumerus
    lhumerus lradius
    lradius lwrist
    lwrist lhand lthumb
    lhand lfingers
    rclavicle rhumerus
    rhumerus rradius
    rradius rwrist
    rwrist rhand rthumb
    rhand rfingers
  end

#!OML:ASF H:\Not Pregnant\Project 1\Capture day 1\Session 1\non-pregnant.ASF
:FULLY-SPECIFIED
:DEGREES
298
root 4.8631 9.68735 11.8045 6.95672 -26.7911 5.52291
lowerback 22.3816 0.776878 -6.9616
upperback 3.21571 -1.11697 -3.8036
thorax -8.92831 -0.401047 0.122535
lowerneck 11.5807 -8.67764 -31.7392
upperneck -24.2914 -12.3586 47.6109
head -1.88875 -8.72814 29.77
rclavicle -3.1408e-014 3.18055e-015
rhumerus -60.9616 17.5765 -80.3044
rradius 99.5057
rwrist 10.0404
rhand -39.8372 -20.1646
rfingers 7.12502
rthumb -12.8109 -49.7515
lclavicle -3.1408e-014 3.18055e-015
lhumerus -77.5415 -20.519 64.8648
lradius 102.661
lwrist 16.7703
lhand -36.7054 -56.2739
lfingers 7.12502
lthumb -9.79039 -26.5215
rfemur -102.802 0.970049 16.2964
rtibia 102.687
rfoot -10.5556 11.5326
rtoes -18.14
lfemur -99.6089 14.6001 -32.3294
ltibia 101.932
lfoot -12.5746 -3.73904
ltoes -25.2984
299
root 4.87072 9.67573 11.7941 6.46503 -26.782 5.36386
lowerback 22.2152 0.77825 -6.66846
upperback 3.23333 -1.02122 -3.75015
thorax -8.82859 -0.366978 -0.0112874
lowerneck 11.7016 -8.66379 -31.7207
upperneck -23.8911 -12.4363 47.5971
head -1.77024 -8.77565 29.649
rclavicle 6.20208e-014 -3.18055e-014
rhumerus -60.8642 17.8504 -80.315
rradius 99.554
rwrist 9.78709
rhand -39.4875 -20.3212
rfingers 7.12502
rthumb -12.4737 -49.9289
lclavicle 6.20208e-014 -3.18055e-014
lhumerus -76.9534 -20.622 64.7884
lradius 102.756
lwrist 16.7076
lhand -36.2293 -54.8498
lfingers 7.12502
lthumb -9.33102 -25.0763
rfemur -102.249 1.04163 16.4726
rtibia 102.713
rfoot -10.4341 11.4937
rtoes -18.0531
lfemur -99.1712 14.9143 -32.2069
ltibia 102.025
lfoot -12.5584 -3.9885
ltoes -24.9865
300
root 4.87772 9.66489 11.7848 5.98382 -26.7807 5.22832
lowerback 22.0214 0.779745 -6.40279
upperback 3.25339 -0.931257 -3.70629
thorax -8.71019 -0.335032 -0.13806
lowerneck 11.7984 -8.65537 -31.6846
upperneck -23.4716 -12.5145 47.5792
head -1.64371 -8.82225 29.5066
rclavicle 2.78299e-014 3.02153e-014
rhumerus -60.733 18.1046 -80.2835
rradius 99.6024
rwrist 9.64083
rhand -38.9393 -20.2326
rfingers 7.12502
rthumb -11.9452 -49.8718
lclavicle 2.78299e-014 3.02153e-014
lhumerus -76.3549 -20.6979 64.6778
lradius 102.884
lwrist 16.6523
lhand -35.7383 -53.4206
lfingers 7.12502
lthumb -8.8573 -23.6265
rfemur -101.717 1.10125 16.6355
rtibia 102.743
rfoot -10.323 11.4575
rtoes -18.0014
lfemur -98.739 15.2155 -32.0959
ltibia 102.114
lfoot -12.5466 -4.22012
ltoes -24.6652
301
root 4.88425 9.65469 11.777 5.51384 -26.7901 5.11871
lowerback 21.8041 0.783028 -6.17203
upperback 3.27499 -0.846708 -3.66779
thorax -8.57623 -0.304615 -0.248951
lowerneck 11.9006 -8.64664 -31.6361
upperneck -23.0714 -12.5885 47.5589
head -1.52888 -8.86704 29.368
rclavicle 6.59965e-014 4.77083e-015
rhumerus -60.5858 18.3731 -80.2597
rradius 99.6748
rwrist 9.47768
rhand -38.4163 -20.1917
rfingers 7.12502
rthumb -11.4407 -49.8596
lclavicle 6.59965e-014 4.77083e-015
lhumerus -75.7456 -20.7302 64.5502
lradius 103.03
lwrist 16.5953
lhand -35.2139 -52.0041
lfingers 7.12502
lthumb -8.3512 -22.1892
rfemur -101.209 1.15013 16.7812
rtibia 102.777
rfoot -10.2246 11.4258
rtoes -17.9898
lfemur -98.3169 15.5048 -31.9993
ltibia 102.202
lfoot -12.5404 -4.43546
ltoes -24.3198
302
root 4.8905 9.64505 11.7704 5.06248 -26.8078 5.0274
lowerback 21.5747 0.784862 -5.98251
upperback 3.28542 -0.773801 -3.62411
thorax -8.44652 -0.2777 -0.327252
lowerneck 12.0321 -8.62106 -31.5942
upperneck -22.6996 -12.6448 47.5386
head -1.43935 -8.90305 29.2649
rclavicle 2.82274e-014 1.19271e-014
rhumerus -60.4313 18.6732 -80.2291
rradius 99.7817
rwrist 9.27921
rhand -37.8755 -20.1903
rfingers 7.12502
rthumb -10.9192 -49.8864
lclavicle 2.82274e-014 1.19271e-014
lhumerus -75.1554 -20.7054 64.4212
lradius 103.196
lwrist 16.5174
lhand -34.6571 -50.5927
lfingers 7.12502
lthumb -7.81386 -20.757
rfemur -100.731 1.18709 16.9165
rtibia 102.814
rfoot -10.1446 11.3993
rtoes -18.0197
lfemur -97.9113 15.779 -31.9109
ltibia 102.289
lfoot -12.5393 -4.62806
ltoes -23.9989
303
root 4.89644 9.63567 11.7649 4.62951 -26.8256 4.94828
lowerback 21.3176 0.782515 -5.80709
upperback 3.29331 -0.708663 -3.58442
thorax -8.30398 -0.254001 -0.399312
lowerneck 12.149 -8.59297 -31.54
upperneck -22.308 -12.6922 47.5021
head -1.35053 -8.93125 29.1361
rclavicle 4.05521e-014 1.11319e-014
rhumerus -60.2724 18.9798 -80.2121
rradius 99.9096
rwrist 9.04797
rhand -37.3907 -20.2682
rfingers 7.12502
rthumb -10.4516 -49.9884
lclavicle 4.05521e-014 1.11319e-014
lhumerus -74.5665 -20.6399 64.2709
lradius 103.392
lwrist 16.4111
lhand -34.0584 -49.1574
lfingers 7.12502
lthumb -7.23591 -19.3011
rfemur -100.278 1.20577 17.0476
rtibia 102.856
rfoot -10.0794 11.3824
rtoes -18.0697
lfemur -97.5228 16.0329 -31.8255
ltibia 102.375
lfoot -12.5432 -4.8021
ltoes -23.6993
304
root 4.90213 9.62622 11.7605 4.21078 -26.8432 4.87912
lowerback 21.0758 0.781146 -5.66815
upperback 3.27599 -0.652739 -3.52971
thorax -8.19616 -0.232021 -0.43198
lowerneck 12.3257 -8.54399 -31.5071
upperneck -21.9478 -12.7263 47.4578
head -1.29202 -8.95337 29.0433
rclavicle 2.82274e-014 -5.56597e-015
rhumerus -60.1468 19.3204 -80.1993
rradius 100.075
rwrist 8.75783
rhand -36.9868 -20.4691
rfingers 7.12502
rthumb -10.0619 -50.2085
lclavicle 2.82274e-014 -5.56597e-015
lhumerus -74.0227 -20.5313 64.1423
lradius 103.606
lwrist 16.2813
lhand -33.3955 -47.6881
lfingers 7.12502
lthumb -6.59607 -17.8109
rfemur -99.8464 1.20592 17.1755
rtibia 102.905
rfoot -10.0317 11.3794
rtoes -18.1221
lfemur -97.1469 16.2674 -31.7395
ltibia 102.464
lfoot -12.5554 -4.95606
ltoes -23.4411
305
root 4.90746 9.61611 11.7566 3.79754 -26.8468 4.80901
lowerback 20.8327 0.776477 -5.53041
upperback 3.25516 -0.601901 -3.47145
thorax -8.09099 -0.212077 -0.458583
lowerneck 12.4921 -8.49385 -31.4703
upperneck -21.5615 -12.7572 47.393
head -1.22997 -8.97003 28.9187
rclavicle -9.14409e-015 2.8625e-014
rhumerus -60.0282 19.648 -80.1849
rradius 100.251
rwrist 8.46704
rhand -36.6394 -20.7024
rfingers 7.12502
rthumb -9.72671 -50.4578
lclavicle -9.14409e-015 2.8625e-014
lhumerus -73.4903 -20.3967 64.0039
lradius 103.855
lwrist 16.1208
lhand -32.6757 -46.1512
lfingers 7.12502
lthumb -5.90108 -16.2534
rfemur -99.4242 1.18007 17.311
rtibia 102.962
rfoot -9.99842 11.3879
rtoes -18.1686
lfemur -96.7736 16.4759 -31.6404
ltibia 102.556
lfoot -12.5739 -5.08994
ltoes -23.2569
306
root 4.91249 9.60553 11.7528 3.37869 -26.835 4.7438
lowerback 20.5871 0.769963 -5.38735
upperback 3.2453 -0.553128 -3.42089
thorax -7.97224 -0.193642 -0.4957
lowerneck 12.6191 -8.45649 -31.4115
upperneck -21.1463 -12.7939 47.3128
head -1.15275 -8.98597 28.7466
rclavicle -1.47101e-014 4.77083e-015
rhumerus -59.8479 19.8803 -80.0748
rradius 100.409
rwrist 8.40137
rhand -35.9496 -20.6699
rfingers 7.12502
rthumb -9.0612 -50.4552
lclavicle -1.47101e-014 4.77083e-015
lhumerus -72.945 -20.245 63.8414
lradius 104.142
lwrist 15.9307
lhand -31.9031 -44.5429
lfingers 7.12502
lthumb -5.15513 -14.6256
rfemur -98.9998 1.1257 17.4471
rtibia 103.027
rfoot -9.97822 11.4126
rtoes -18.2059
lfemur -96.3889 16.6573 -31.531
ltibia 102.648
lfoot -12.5921 -5.20969
ltoes -23.0976
307
root 4.9173 9.59458 11.7493 2.94594 -26.8112 4.68921
lowerback 20.349 0.767717 -5.24438
upperback 3.25028 -0.500393 -3.37843
thorax -7.84114 -0.173699 -0.542331
lowerneck 12.7343 -8.43506 -31.3342
upperneck -20.7433 -12.8435 47.2264
head -1.07222 -9.00842 28.551
rclavicle -2.60408e-014 2.54444e-014
rhumerus -59.6421 20.0605 -79.9607
rradius 100.565
rwrist 8.31563
rhand -35.3549 -20.6617
rfingers 7.12502
rthumb -8.48729 -50.4712
lclavicle -2.60408e-014 2.54444e-014
lhumerus -72.3829 -20.0823 63.6699
lradius 104.459
lwrist 15.7126
lhand -31.0767 -42.8757
lfingers 7.12502
lthumb -4.35724 -12.9405
rfemur -98.5675 1.04465 17.5783
rtibia 103.1
rfoot -9.97153 11.4543
rtoes -18.238
lfemur -95.9822 16.8154 -31.4163
ltibia 102.74
lfoot -12.6168 -5.31009
ltoes -22.9792
308
root 4.92211 9.58359 11.7459 2.48847 -26.7762 4.649
lowerback 20.0916 0.769013 -5.07454
upperback 3.30003 -0.437386 -3.3661
thorax -7.65124 -0.151376 -0.638544
lowerneck 12.8101 -8.43982 -31.2176
upperneck -20.3593 -12.9082 47.1483
head -0.982223 -9.03979 28.3338
rclavicle 2.34566e-014 4.13472e-014
rhumerus -59.3381 20.1061 -79.7784
rradius 100.696
rwrist 8.38584
rhand -34.5372 -20.4064
rfingers 7.12502
rthumb -7.69807 -50.2463
lclavicle 2.34566e-014 4.13472e-014
lhumerus -71.7541 -19.9157 63.4598
lradius 104.806
lwrist 15.4587
lhand -30.2166 -41.1628
lfingers 7.12502
lthumb -3.52664 -11.2122
rfemur -98.1154 0.935973 17.7012
rtibia 103.178
rfoot -9.98016 11.5133
rtoes -18.2726
lfemur -95.539 16.952 -31.298
ltibia 102.827
lfoot -12.6486 -5.38925
ltoes -22.9008
